<?xml version="1.0" encoding="utf-8" ?>
<svg xmlns="http://www.w3.org/2000/svg" xmlns:xlink="http://www.w3.org/1999/xlink" width="1024" height="1024">
	<path fill="#42445D" transform="scale(1.6 1.6)" d="M174.109 148.231C189.603 147.548 176.504 164.875 169.676 167.47L168.594 167.508C164.447 167.623 162.81 165.261 161.686 161.501C163.747 155.873 168.287 150.117 174.109 148.231Z"/>
	<path fill="#42445D" transform="scale(1.6 1.6)" d="M330.408 529.644L330.473 529.647C334.143 526.922 339.075 526.815 343.451 526.195L353.803 524.513C363.111 522.796 372.172 520.337 381.115 517.246C387.623 514.997 394.559 511.365 401.36 510.506C403.444 512.272 405.227 514.171 407.04 516.211C407.384 518.03 407.536 519.249 406.411 520.811C401.381 527.784 368.591 535.954 359.844 537.785L345.007 540.219C336.06 541.348 327.501 541.368 330.408 529.644Z"/>
	<defs>
		<linearGradient id="gradient_0" gradientUnits="userSpaceOnUse" x1="468.5704" y1="373.96457" x2="530.75421" y2="388.05627">
			<stop offset="0" stop-color="#654DFB"/>
			<stop offset="1" stop-color="#8273FF"/>
		</linearGradient>
	</defs>
	<path fill="url(#gradient_0)" transform="scale(1.6 1.6)" d="M534.775 263.384C554.045 321.082 536.2 397.434 501.165 445.552C495.5 453.333 455.821 500.09 444.149 492.831C443.223 488.387 440.949 487.383 444.867 483.434C448.166 480.109 452.53 477.352 456.186 474.373C493.416 444.039 512.375 409.565 523.51 362.955C527.125 347.82 529.4 333.25 529.405 317.736L529.277 303.435C528.819 294.967 528.062 285.815 526.428 277.485L523.212 264.391L526.7 267.022C530.525 266.8 532.139 266.278 534.775 263.384Z"/>
	<path fill="#42445D" transform="scale(1.6 1.6)" d="M358.057 114.533C317.114 105.546 270.923 111.484 232.559 127.284L224.202 131.001C218.379 133.888 215.019 136.036 212.859 127.188C214.509 120.847 234.199 114.564 239.688 112.443C292.307 92.1149 349.874 91.796 401.204 115.781C415.526 122.474 436.568 134.182 449.67 142.872C483.339 165.202 516.142 203.641 529.183 242.77C531.44 249.543 532.932 256.496 534.775 263.384C532.139 266.278 530.525 266.8 526.7 267.022L523.212 264.391C523.155 263.775 522.261 262.553 521.941 261.964L510.251 235.412C486.679 184.142 431.552 138.319 377.843 119.898C374.273 118.673 370.638 117.396 366.931 116.669C364.145 115.635 360.964 115.142 358.057 114.533Z"/>
	<path fill="#42445D" transform="scale(1.6 1.6)" d="M307.57 530.419C307.979 536.108 305.976 537.566 301.139 537.495L294.026 537.368C221.095 535.149 155.647 486.951 122.407 423.495L113.673 406.008C96.2486 366.287 90.9515 314.832 101.882 273.125C110.111 241.725 129.439 203.394 148.459 178.008C151.558 173.871 157.052 164.973 163.438 168.739C167.693 173.81 159.457 182.725 156.647 186.64C128.755 225.491 110.515 279.7 110.672 328.081C110.686 332.203 110.627 336.478 111.321 340.55L116.694 369.545C121.789 396.89 140.849 432.463 158.229 453.213C190.6 491.859 238.43 517.183 288.375 523.042C293.476 523.641 304.958 522.625 306.95 528.422L307.57 530.419Z"/>
	<defs>
		<linearGradient id="gradient_1" gradientUnits="userSpaceOnUse" x1="435.69833" y1="498.89371" x2="210.08488" y2="153.53598">
			<stop offset="0" stop-color="#8375FF"/>
			<stop offset="1" stop-color="#BFC3FF"/>
		</linearGradient>
	</defs>
	<path fill="url(#gradient_1)" transform="scale(1.6 1.6)" d="M158.311 203.784C160.168 200.744 162.529 197.888 164.703 195.065C193.431 157.764 235.889 134.763 280.25 121.453C305.387 113.91 331.286 110.626 357.36 115.723C356.92 115.176 357.037 115.487 357.001 114.795L358.057 114.533C360.964 115.142 364.145 115.635 366.931 116.669C370.638 117.396 374.273 118.673 377.843 119.898C431.552 138.319 486.679 184.142 510.251 235.412L521.941 261.964C522.261 262.553 523.155 263.775 523.212 264.391L526.428 277.485C528.062 285.815 528.819 294.967 529.277 303.435L529.405 317.736C529.4 333.25 527.125 347.82 523.51 362.955C512.375 409.565 493.416 444.039 456.186 474.373C452.53 477.352 448.166 480.109 444.867 483.434C440.949 487.383 443.223 488.387 444.149 492.831C441.341 495.822 437.909 497.771 434.449 499.92L410.021 513.169C407.997 514.063 407.177 513.75 407.04 516.211C405.227 514.171 403.444 512.272 401.36 510.506C394.559 511.365 387.623 514.997 381.115 517.246C372.172 520.337 363.111 522.796 353.803 524.513L343.451 526.195C339.075 526.815 334.143 526.922 330.473 529.647L330.408 529.644C325.827 529.361 311.229 529.673 307.57 530.286L306.95 528.422C304.958 522.625 293.476 523.641 288.375 523.042C238.43 517.183 190.6 491.859 158.229 453.213C140.849 432.463 121.789 396.89 116.694 369.545L116.914 369.5C118.148 367.087 116.519 360.903 116.233 358.282L115.559 354.093C114.219 343.867 113.68 325.515 114.481 314.891C117.131 279.738 136.322 232.446 158.311 203.784Z"/>
	<path fill="#F8F7FF" transform="scale(1.6 1.6)" d="M358.057 114.533C360.964 115.142 364.145 115.635 366.931 116.669L366.25 117.365C363.332 117.039 360.132 116.716 357.36 115.723C356.92 115.176 357.037 115.487 357.001 114.795L358.057 114.533Z"/>
	<defs>
		<linearGradient id="gradient_2" gradientUnits="userSpaceOnUse" x1="312.38489" y1="154.82291" x2="317.44962" y2="205.42033">
			<stop offset="0" stop-color="#3E4069"/>
			<stop offset="1" stop-color="#48469C"/>
		</linearGradient>
	</defs>
	<path fill="url(#gradient_2)" transform="scale(1.6 1.6)" d="M216.834 195.959L216.359 195.312C217.72 185.76 258.792 166.963 269.543 163.108C305.458 150.23 343.92 153.546 379.101 166.709C392.186 171.605 407.848 178.296 416.724 189.532C414.419 192.397 411.719 195.44 408.686 197.556C403.805 195.1 399.179 191.658 394.446 188.875C370.078 174.55 341.293 167.671 313.172 167.385C282.63 167.074 255.866 176.193 230.554 193.593C227.69 195.561 224.972 198.107 221.863 199.645L216.834 195.959Z"/>
	<defs>
		<linearGradient id="gradient_3" gradientUnits="userSpaceOnUse" x1="349.39124" y1="479.42099" x2="294.56357" y2="198.97937">
			<stop offset="0" stop-color="#4E40B4"/>
			<stop offset="1" stop-color="#AB94FF"/>
		</linearGradient>
	</defs>
	<path fill="url(#gradient_3)" transform="scale(1.6 1.6)" d="M416.724 189.532C435.413 203.274 451.841 224.079 461.881 244.688C489.179 300.719 487.473 361.064 450.42 411.221C449.122 412.979 447.758 415.012 446.182 416.52C416.048 456.123 363.12 483.699 313.393 483.854C278.139 483.963 248.647 472.203 220.554 450.719L210.83 442.528C168.953 405.707 150.503 349.175 158.811 294.688L161.105 282.959C165.325 267.383 171.372 251.993 179.708 238.125L191.159 221.007C192.179 219.972 193.159 219.007 194.346 218.156C195.949 223.359 195.054 224.145 192.585 229.111L186.072 242.231C171.291 273.564 164.455 313.015 170.543 347.082C173.047 367.589 184.555 393.364 196.303 409.657L206.272 421.963C206.634 422.374 207.423 423.06 207.622 423.556C231.178 449.165 265.616 466.881 300.156 470.441C356.385 476.235 411.069 445.075 443.935 400.8C466.409 365.65 475.729 331.756 466.316 289.531C465.179 284.433 464.048 278.8 461.802 274.072C459.331 267.923 457.563 261.535 454.9 255.429C444.961 232.645 429.046 211.92 408.686 197.556C411.719 195.44 414.419 192.397 416.724 189.532Z"/>
	<path fill="white" transform="scale(1.6 1.6)" d="M216.834 195.959L221.863 199.645C224.972 198.107 227.69 195.561 230.554 193.593C255.866 176.193 282.63 167.074 313.172 167.385C341.293 167.671 370.078 174.55 394.446 188.875C399.179 191.658 403.805 195.1 408.686 197.556C429.046 211.92 444.961 232.645 454.9 255.429C457.563 261.535 459.331 267.923 461.802 274.072C457.69 283.502 455.957 284.965 448.063 291.592C441.804 296.848 411.972 319.435 404.719 320.927C403.268 312.405 393.372 313.449 387.024 313.086L329.807 310.08C327.61 310 325.471 309.503 323.281 309.431L265.86 308.738C266.938 308.214 267.542 307.627 268.3 306.702C270.481 304.039 285.158 294.602 288.737 293.43C291.403 292.556 294.371 292.858 297.117 292.399C303.106 291.398 310.512 284.967 311.698 279.149C314.04 267.657 301.962 261.544 293.055 267.567C290.423 269.347 289.101 273.012 286.763 275.295C277.161 284.671 263.507 293.068 251.852 299.612C246.668 302.523 231.282 309.048 230.285 315.607C226.673 317.642 222.007 318.421 218.053 319.814L192.088 330.405C183.802 334.263 175.894 338.184 171.044 346.388L170.543 347.082C164.455 313.015 171.291 273.564 186.072 242.231L192.585 229.111C195.054 224.145 195.949 223.359 194.346 218.156C193.159 219.007 192.179 219.972 191.159 221.007L191.53 219.833C191.967 219.44 191.898 219.443 192.034 218.906C191.501 219.441 190.909 220.197 190.166 220.41L189.854 220.453C191.936 217.892 213.68 197.125 216.834 195.959Z"/>
	<path fill="#B8B8FF" transform="scale(1.6 1.6)" d="M230.285 315.607C231.282 309.048 246.668 302.523 251.852 299.612C263.507 293.068 277.161 284.671 286.763 275.295C289.101 273.012 290.423 269.347 293.055 267.567C301.962 261.544 314.04 267.657 311.698 279.149C310.512 284.967 303.106 291.398 297.117 292.399C294.371 292.858 291.403 292.556 288.737 293.43C285.158 294.602 270.481 304.039 268.3 306.702C267.542 307.627 266.938 308.214 265.86 308.738L323.281 309.431C325.471 309.503 327.61 310 329.807 310.08L387.024 313.086C393.372 313.449 403.268 312.405 404.719 320.927C411.972 319.435 441.804 296.848 448.063 291.592C455.957 284.965 457.69 283.502 461.802 274.072C464.048 278.8 465.179 284.433 466.316 289.531C475.729 331.756 466.409 365.65 443.935 400.8C411.069 445.075 356.385 476.235 300.156 470.441C265.616 466.881 231.178 449.165 207.622 423.556C207.423 423.06 206.634 422.374 206.272 421.963L196.303 409.657C184.555 393.364 173.047 367.589 170.543 347.082L171.044 346.388C175.894 338.184 183.802 334.263 192.088 330.405L218.053 319.814C222.007 318.421 226.673 317.642 230.285 315.607Z"/>
	<defs>
		<linearGradient id="gradient_4" gradientUnits="userSpaceOnUse" x1="327.32544" y1="270.94147" x2="306.06097" y2="371.12576">
			<stop offset="0" stop-color="#3A3C58"/>
			<stop offset="1" stop-color="#46437B"/>
		</linearGradient>
	</defs>
	<path fill="url(#gradient_4)" transform="scale(1.6 1.6)" d="M230.285 315.607C231.282 309.048 246.668 302.523 251.852 299.612C263.507 293.068 277.161 284.671 286.763 275.295C289.101 273.012 290.423 269.347 293.055 267.567C301.962 261.544 314.04 267.657 311.698 279.149C310.512 284.967 303.106 291.398 297.117 292.399C294.371 292.858 291.403 292.556 288.737 293.43C285.158 294.602 270.481 304.039 268.3 306.702C267.542 307.627 266.938 308.214 265.86 308.738L323.281 309.431C325.471 309.503 327.61 310 329.807 310.08L387.024 313.086C393.372 313.449 403.268 312.405 404.719 320.927C403.883 324.887 400.858 328.726 396.57 328.78C386.012 328.911 375.798 327.695 365.312 326.949L321.012 324.243L257.15 323.407C260.153 326.265 264.069 328.753 267.305 331.436C281.276 343.023 288.72 350.35 305.312 357.863C313.483 361.563 306.603 376.928 289.844 367.089C286.552 365.156 283.517 362.456 280.515 360.089L245.251 331.149C240.297 327.183 231.976 322.165 230.285 315.607Z"/>
</svg>
