<?xml version="1.0" encoding="utf-8" ?>
<svg xmlns="http://www.w3.org/2000/svg" xmlns:xlink="http://www.w3.org/1999/xlink" width="718" height="718">
	<path fill="#F8F7FF" transform="matrix(1.12188 0 0 1.12188 0 0.000488281)" d="M312.427 348.048L317.731 347.257C316.566 348.716 315.679 349.485 313.867 349.99L312.427 348.048Z"/>
	<path fill="#201F34" transform="matrix(1.12188 0 0 1.12188 0 0.000488281)" d="M325.855 340.183L324.255 338.906C324.706 329.358 343.599 327.986 349.889 330.425L350.312 330.595C353.593 331.808 359.42 336.764 354.684 339.626C351.657 340.243 330.358 340.791 326.822 340.324L325.855 340.183Z"/>
	<path fill="#201F34" transform="matrix(1.12188 0 0 1.12188 0 0.000488281)" d="M481.344 452.245C495.857 450.64 499.835 470.625 486.064 474.322C470.7 474.871 468.049 456.974 481.344 452.245Z"/>
	<path fill="#201F34" transform="matrix(1.12188 0 0 1.12188 0 0.000488281)" d="M402.225 452.257C416.19 451.444 419.274 471.968 404.27 474.527C389.614 475.884 387.105 455.148 402.225 452.257Z"/>
	<path fill="#201F34" transform="matrix(1.12188 0 0 1.12188 0 0.000488281)" d="M441.731 408.842L449.844 408.81C455.758 409.308 475.489 416.809 473.748 424.146C472.296 430.264 468.266 429.804 464.387 426.147C461.255 423.195 457.91 421.561 453.863 420.167C436.422 414.553 434.277 425.185 427.272 427.2C419.382 429.469 414.797 413.198 441.731 408.842Z"/>
	<path fill="#9381FF" transform="matrix(1.12188 0 0 1.12188 0 0.000488281)" d="M326.822 340.355C330.358 340.791 351.657 340.243 354.684 339.764L353.724 342.656C354.36 343.304 355.253 343.689 356.094 344.013C356.169 344.854 356.112 345.599 356.601 346.309L357.122 346C363.766 342.017 354.757 349.393 353.658 350.688C352.896 351.523 351.382 353.623 350.475 354.151C347.576 357.379 344.428 360.591 342.053 364.23L341.91 363.738C341.466 362.394 339.934 361.748 338.753 361.195C331.065 361.841 318.626 355.934 313.867 349.99C315.679 349.485 316.566 348.716 317.731 347.257C318.066 346.165 321.072 343.489 321.949 342.514C323.262 341.412 324.258 340.802 325.855 340.183L326.822 340.355Z"/>
	<path fill="#5A51C1" transform="matrix(1.12188 0 0 1.12188 0 0.000488281)" d="M348.945 352.577C349.424 351.7 351.417 350.2 352.344 349.783L353.658 350.688C352.896 351.523 351.382 353.623 350.475 354.151L349.688 354.219L348.945 352.577Z"/>
	<defs>
		<linearGradient id="gradient_0" gradientUnits="userSpaceOnUse" x1="341.04471" y1="361.93744" x2="348.74973" y2="353.73062">
			<stop offset="0" stop-color="#363467"/>
			<stop offset="1" stop-color="#564AB2"/>
		</linearGradient>
	</defs>
	<path fill="url(#gradient_0)" transform="matrix(1.12188 0 0 1.12188 0 0.000488281)" d="M338.753 361.195C342.622 359.296 345.598 355.287 348.945 352.577L349.688 354.219L350.475 354.151C347.576 357.379 344.428 360.591 342.053 364.23L341.91 363.738C341.466 362.394 339.934 361.748 338.753 361.195Z"/>
	<defs>
		<linearGradient id="gradient_1" gradientUnits="userSpaceOnUse" x1="338.99979" y1="346.16049" x2="339.9136" y2="338.05673">
			<stop offset="0" stop-color="#A399FF"/>
			<stop offset="1" stop-color="#BFB9FF"/>
		</linearGradient>
	</defs>
	<path fill="url(#gradient_1)" transform="matrix(1.12188 0 0 1.12188 0 0.000488281)" d="M326.822 340.355C330.358 340.791 351.657 340.243 354.684 339.764L353.724 342.656C354.36 343.304 355.253 343.689 356.094 344.013C356.169 344.854 356.112 345.599 356.601 346.309L355.31 346.606C350.686 343.698 332.203 344.682 326.094 344.899C325.702 343.915 329.151 343.435 326.35 342.599L325.892 342.474C324.435 342.949 323.406 342.983 321.949 342.514C323.262 341.412 324.258 340.802 325.855 340.183L326.822 340.355Z"/>
	<path fill="#201F34" transform="matrix(1.12188 0 0 1.12188 0 0.000488281)" d="M443.44 468.866C462.908 469.715 464.621 497.045 444.781 499.384C424.133 499.283 422.126 471.07 443.44 468.866Z"/>
	<path fill="#201F34" transform="matrix(1.12188 0 0 1.12188 0 0.000488281)" d="M444.65 380.445C461.943 378.321 479.682 386.979 493.146 396.928C496.476 399.389 498.484 402.91 495.185 406.406C490.826 411.026 487.685 405.846 484.097 403.177C472.656 394.668 461.113 390.649 447.035 390.617C435.515 390.818 423.643 396.137 414.585 402.995L409.458 407.272C403.703 412.41 398.425 413.072 397.606 404.267C410.121 391.693 426.745 381.764 444.65 380.445Z"/>
	<path fill="#201F34" transform="matrix(1.12188 0 0 1.12188 0 0.000488281)" d="M165.884 495.531C167.334 495.327 168.031 494.508 168.934 493.446L172.98 493.764C180.98 496.455 189.286 497.071 197.598 498.172C209.441 500.163 221.87 499.636 233.849 499.633L269.904 499.449C272.887 499.362 275.871 498.793 278.865 498.625L309.844 497.272C317.452 496.948 321.726 493.868 321.247 503.281L319.715 505.618L241.661 509.006C227.498 509.018 176.218 510.284 165.629 500.543L162.756 498.033C163.38 496.474 164.116 495.655 165.884 495.531Z"/>
	<path fill="#5A51C1" transform="matrix(1.12188 0 0 1.12188 0 0.000488281)" d="M162.756 498.033C163.38 496.474 164.116 495.655 165.884 495.531C165.617 497.25 165.576 498.813 165.629 500.543L162.756 498.033Z"/>
	<path fill="#201F34" transform="matrix(1.12188 0 0 1.12188 0 0.000488281)" d="M138.139 193.697L138.286 145.42C138.332 138.665 139.172 131.9 139.789 125.161C144.506 73.6418 180.468 66.1066 226.607 66.149C261.173 66.1808 295.57 69.6525 328.913 78.8725C334.513 80.4208 360.393 85.4474 354.087 95.4688C350.549 97.2295 341.803 92.7742 338.317 91.59L327.39 88.0819C303.755 81.2438 274.306 77.6713 250.017 76.446L231.661 75.7273C168.862 75.5391 150.095 83.6283 147.743 148.125L147.401 191.127C143.452 196.65 148.35 196.814 138.521 194.299L138.139 193.697Z"/>
	<path fill="#9381FF" transform="matrix(1.12188 0 0 1.12188 0 0.000488281)" d="M147.225 191.127C148.354 200.061 147.815 209.419 147.809 218.428L147.908 378.281C147.983 382.405 148.562 388.156 148.814 392.5L149.259 398.796C149.99 430.046 145.777 471.449 172.98 493.764L168.934 493.446C168.031 494.508 167.334 495.327 165.884 495.531C164.116 495.655 163.38 496.474 162.756 498.033C156.813 493.921 150.585 490.994 145.492 485.683C129.119 468.611 124.071 430.704 123.187 408.438L123.214 356.927L132.594 245.761C134.473 228.409 137.773 211.191 138.139 193.697L138.521 194.299C148.35 196.814 143.452 196.65 147.225 191.127Z"/>
	<path fill="#201F34" transform="matrix(1.12188 0 0 1.12188 0 0.000488281)" d="M334.954 494.931L335.323 494.958C338.505 495.153 338.581 494.526 337.77 491.786L335.692 484.86C322.718 440.914 338.04 381.22 374.339 352.294C398.055 333.394 426.891 326.649 456.527 331.294L472.404 334.383C523.011 346.433 548.428 390.845 547.976 440.203C547.397 503.253 505.735 553.508 440.126 556.346C437.161 556.475 433.211 557.008 430.317 556.437C425.977 555.583 424.065 548.499 428.406 546.421C430.72 545.313 435.126 546.031 437.732 546C551.077 544.665 571.955 385.357 483.174 348.543C412.618 319.285 343.53 366.595 343.315 443.887C343.218 478.889 358.773 516.738 390.141 534.815C395.046 537.641 414.989 543.079 405.125 549.844L401.802 551.728L386.375 544.733C370.134 536.374 358.584 524.166 347.832 509.722C346.991 508.592 343.259 503.154 342.315 503.248L335.628 503.372C333.587 501.314 334.01 497.39 334.954 494.931Z"/>
	<defs>
		<linearGradient id="gradient_2" gradientUnits="userSpaceOnUse" x1="252.6978" y1="508.25842" x2="332.45441" y2="103.51485">
			<stop offset="0" stop-color="#8C82FF"/>
			<stop offset="1" stop-color="#C3C8FF"/>
		</linearGradient>
	</defs>
	<path fill="url(#gradient_2)" transform="matrix(1.12188 0 0 1.12188 0 0.000488281)" d="M353.058 108.82L353.822 106.007C355.712 99.2283 357.323 93.452 364.548 91.3074L395.551 112.269C440.212 145.361 455.467 175.073 460.684 228.351C461.97 241.479 461.822 251.996 461.819 265.217C461.817 272.327 463.92 289.973 458.355 295.207L458.148 295.371L458.085 295.817C457.672 299.423 458.361 303.269 458.113 306.94C453.534 308.24 449.855 310.28 445.494 312.05C433.433 316.948 415.488 320.36 402.861 315.13C401.165 314.427 397.547 311.683 396.349 314.125L394.599 317.884C392.643 322.023 389.14 324.747 385.564 327.426L371.002 337.344C367.913 339.429 364.971 341.953 361.719 343.744L370.475 336.469C371.859 335.271 373.306 334.217 373.702 332.344L370.443 330.005C364.169 326.137 352.218 313.306 345.699 319.021L345.441 319.158C341.676 321.092 335.715 319.943 331.476 320.472C322.804 321.554 311.474 329.156 310.271 338.438L310.19 339.032C309.747 342.532 310.823 345.049 312.427 348.048L313.867 349.99C318.626 355.934 331.065 361.841 338.753 361.195C339.934 361.748 341.466 362.394 341.91 363.738L342.053 364.23C337.367 371.597 335.962 370.536 327.305 368.204C317.953 365.684 308.744 360.89 303.795 352.228C302.852 352.448 301.827 352.57 301.048 353.177C303.508 358.496 304.367 364.675 306.069 370.3C308.534 378.45 311.726 386.368 315.157 394.156L324.29 413.15C325.334 415.289 325.202 415.106 324.616 417.435L322.415 425.835C317.654 444.512 313.843 464.9 323.525 482.681C326.077 487.37 329.835 492.706 334.923 494.828L334.954 494.931C334.01 497.39 333.587 501.314 335.628 503.372L327.416 504.521C324.93 504.955 322.243 505.673 319.715 505.618L321.247 503.281C321.726 493.868 317.452 496.948 309.844 497.272L278.865 498.625C275.871 498.793 272.887 499.362 269.904 499.449L233.849 499.633C221.87 499.636 209.441 500.163 197.598 498.182C196.463 496.964 195.009 496.262 193.636 495.364L186.875 490.641C164.661 473.982 159.43 449.077 159.347 422.851L159.24 397.817C159.156 395.432 158.622 393.098 158.55 390.714L158.407 362.812C158.354 359.728 157.812 356.695 157.763 353.626L157.762 286.756C157.788 283.304 158.404 279.898 158.427 276.488L158.544 226.497C158.596 223.249 159.258 220.088 159.303 216.865L159.346 169.535C159.379 148.918 156.437 124.419 176.841 112.141C209.973 92.2039 250.838 92.5362 288.044 96.3366C299.865 97.5441 311.789 98.827 323.438 101.233L341.924 105.458C345.658 106.487 349.309 107.895 353.058 108.82ZM274.573 357.575L276.094 357.828C278.734 354.316 279.096 352.434 277.308 348.812L275.908 346.383C275.897 342.981 276.56 339.638 276.696 336.217C277.985 303.745 282.149 280.216 320.657 277.822C333.28 277.037 338.433 280.162 338.472 292.773L338.324 311.514L340.388 311.736C346.491 312.447 343.859 315.757 345.699 319.021C352.218 313.306 364.169 326.137 370.443 330.005L373.702 332.344C373.306 334.217 371.859 335.271 370.475 336.469L361.719 343.744C364.971 341.953 367.913 339.429 371.002 337.344L385.564 327.426C389.14 324.747 392.643 322.023 394.599 317.884L393.972 313.746C390.723 310.847 386.312 308.743 382.404 306.875L381.915 306.562C381.498 295.614 383.431 282.136 383.41 270.164C383.36 242.162 377.456 239.398 351.182 240.716L306.552 243.993L279.219 248.317C245.113 254.631 229.391 257.71 229.441 295.375L229.578 313.513C229.694 322.228 232.167 321.196 225.156 323.008C206.672 327.785 189.811 342.358 191.588 363.047C192.224 370.459 197.983 378.826 203.688 383.377C221.553 397.626 255.027 392.412 268.954 374.74C272.301 370.493 275.586 364.312 275.385 358.75L274.573 357.575Z"/>
	<path fill="#F8F7FF" transform="matrix(1.12188 0 0 1.12188 0 0.000488281)" d="M301.048 353.177C300.151 351.277 297.856 347.298 301.478 346.499C302.073 348.565 302.81 350.321 303.795 352.228C302.852 352.448 301.827 352.57 301.048 353.177Z"/>
	<path fill="#201F34" transform="matrix(1.12188 0 0 1.12188 0 0.000488281)" d="M240.518 127.47C255.284 125.903 251.292 136.555 246.171 137.305C241.598 137.975 236.537 137.517 231.88 137.737L198.087 140.405C184.088 142.259 187.233 132.536 193.438 130.956C197.838 129.836 202.97 129.835 207.507 129.455L240.518 127.47Z"/>
	<path fill="#201F34" transform="matrix(1.12188 0 0 1.12188 0 0.000488281)" d="M259.509 158.777C266.758 158.039 272.489 168.208 254.094 168.908L195.074 174.986C186.3 175.402 185.935 166.422 194.844 164.449C201.654 162.94 209.218 162.799 216.181 162.105C230.494 160.678 245.117 158.69 259.509 158.777Z"/>
	<path fill="#201F34" transform="matrix(1.12188 0 0 1.12188 0 0.000488281)" d="M275.9 346.383C275.897 342.981 276.56 339.638 276.696 336.217C277.985 303.745 282.149 280.216 320.657 277.822C333.28 277.037 338.433 280.162 338.472 292.773L338.324 311.514L340.388 311.736C346.491 312.447 343.859 315.757 345.699 319.021L345.441 319.158C341.676 321.092 335.715 319.943 331.476 320.472C322.804 321.554 311.474 329.156 310.271 338.438L310.19 339.032C309.747 342.532 310.823 345.049 312.427 348.048L313.867 349.99C318.626 355.934 331.065 361.841 338.753 361.195C339.934 361.748 341.466 362.394 341.91 363.738L342.053 364.23C337.367 371.597 335.962 370.536 327.305 368.204C317.953 365.684 308.744 360.89 303.795 352.228C302.81 350.321 302.073 348.565 301.478 346.499C298.29 330.752 310.334 315.269 325.831 312.174C327.014 311.937 328.006 311.831 329.074 311.206L329.183 297.32C329.201 294.198 329.418 290.794 328.821 287.723C320.283 285.296 308.939 288.249 301.334 292.458C290.475 298.468 287.306 308.885 286.771 320.469L286.617 337.046C286.536 343.784 285.922 350.007 277.308 348.812L275.9 346.383Z"/>
	<path fill="#201F34" transform="matrix(1.12188 0 0 1.12188 0 0.000488281)" d="M353.058 108.82L353.822 106.007C355.712 99.2283 357.323 93.452 364.548 91.3074L395.551 112.269C440.212 145.361 455.467 175.073 460.684 228.351C461.97 241.479 461.822 251.996 461.819 265.217C461.817 272.327 463.92 289.973 458.355 295.207L458.148 295.371C449.528 296.367 447.779 294.041 447.774 286.528L446.5 228.434C445.201 213.736 443.704 197.728 438.899 183.666L409.43 187.791C383.837 190.988 365.676 189.196 355.979 161.078C350.401 144.904 349.807 125.53 353.058 108.82Z"/>
	<path fill="white" transform="matrix(1.12188 0 0 1.12188 0 0.000488281)" d="M364.222 103.468L364.525 103.604C368.845 105.678 372.999 108.899 377.015 111.552C397.775 125.268 426.474 149.113 435.408 173.612L427.881 174.964L403.125 178.514C396.467 179.235 388.987 180.312 382.5 178.124C359.811 170.469 357.422 123.481 364.222 103.468Z"/>
	<path fill="#201F34" transform="matrix(1.12188 0 0 1.12188 0 0.000488281)" d="M274.573 357.575L275.385 358.75C275.586 364.312 272.301 370.493 268.954 374.74C255.027 392.412 221.553 397.626 203.688 383.377C197.983 378.826 192.224 370.459 191.588 363.047C189.811 342.358 206.672 327.785 225.156 323.008C232.167 321.196 229.694 322.228 229.578 313.513L229.441 295.375C229.391 257.71 245.113 254.631 279.219 248.317L306.552 243.993L351.182 240.716C377.456 239.398 383.36 242.162 383.41 270.164C383.431 282.136 381.498 295.614 381.915 306.562L382.404 306.875C386.312 308.743 390.723 310.847 393.972 313.746L394.599 317.884C392.643 322.023 389.14 324.747 385.564 327.426L371.002 337.344C367.913 339.429 364.971 341.953 361.719 343.744L370.475 336.469C371.859 335.271 373.306 334.217 373.702 332.344L370.443 330.005C364.169 326.137 352.218 313.306 345.699 319.021C343.859 315.757 346.491 312.447 340.388 311.736L338.324 311.514L338.472 292.773C338.433 280.162 333.28 277.037 320.657 277.822C282.149 280.216 277.985 303.745 276.696 336.217C276.56 339.638 275.897 342.981 275.908 346.383L277.308 348.812C279.096 352.434 278.734 354.316 276.094 357.828L274.573 357.575ZM246.546 267.646L299.394 260.401L338.594 256.88C343.743 256.596 371.068 257.536 373.384 256.006C370.781 249.366 368.022 249.976 361.68 250.106L297.344 255.11C284.806 256.757 258.492 261.558 246.998 267.392L246.546 267.646Z"/>
	<path fill="#9381FF" transform="matrix(1.12188 0 0 1.12188 0 0.000488281)" d="M244.092 329.884L244.34 329.68C245.173 328.976 245.552 328.458 246.03 327.5L246.717 326.168C258.621 329.11 268.201 337.146 275.9 346.383L277.308 348.812C279.096 352.434 278.734 354.316 276.094 357.828L274.573 357.575C272.561 356.243 269.972 355.807 267.835 357.257L267.636 357.499C265.755 359.879 265.067 363.519 263.486 366.224C251.098 387.423 204.635 390.625 201.24 361.25L201.109 359.886C201.635 345.087 216.873 332.616 231.068 330.762C236.558 330.044 238.46 333.372 244.092 329.884Z"/>
	<path fill="white" transform="matrix(1.12188 0 0 1.12188 0 0.000488281)" d="M244.092 329.884L244.34 329.68C245.173 328.976 245.552 328.458 246.03 327.5L246.717 326.168C258.621 329.11 268.201 337.146 275.9 346.383L277.308 348.812C279.096 352.434 278.734 354.316 276.094 357.828L274.573 357.575C272.561 356.243 269.972 355.807 267.835 357.257C266.785 356.818 265.413 356.266 264.267 356.531L263.906 356.66C263.728 355.043 262.678 353.133 262.042 351.611C259.115 352.532 255.63 352.153 252.631 352.143C244.434 352.115 230.918 351.252 223.114 352.986C222.534 353.77 221.764 353.661 220.87 353.885L215.891 355.236C211.016 356.679 206.055 358.892 201.109 359.886C201.635 345.087 216.873 332.616 231.068 330.762C236.558 330.044 238.46 333.372 244.092 329.884Z"/>
	<path fill="#161352" transform="matrix(1.12188 0 0 1.12188 0 0.000488281)" d="M223.114 352.986C219.969 342.758 241.119 341.619 246.79 341.803C254.4 342.05 259.452 343.857 262.042 351.611C259.115 352.532 255.63 352.153 252.631 352.143C244.434 352.115 230.918 351.252 223.114 352.986Z"/>
	<path fill="#9381FF" transform="matrix(1.12188 0 0 1.12188 0 0.000488281)" d="M373.384 256.213C377.212 268.647 373.224 295.639 371.774 308.654L371.16 317.969C370.843 321.862 369.703 325.895 370.594 329.765C372.722 329.911 373.061 330.217 372.323 328.281L374.103 330.917C381.172 325.925 382.117 321.156 382.732 312.875C382.884 310.828 383.174 308.827 382.404 306.875C386.312 308.743 390.723 310.847 393.972 313.746L394.599 317.884C392.643 322.023 389.14 324.747 385.564 327.426L371.002 337.344C367.913 339.429 364.971 341.953 361.719 343.744L370.475 336.469C371.859 335.271 373.306 334.217 373.702 332.344L370.443 330.005C364.169 326.137 352.218 313.306 345.699 319.021C343.859 315.757 346.491 312.447 340.388 311.736L338.324 311.514L338.472 292.773C338.433 280.162 333.28 277.037 320.657 277.822C282.149 280.216 277.985 303.745 276.696 336.217C276.56 339.638 275.897 342.981 275.908 346.383C268.201 337.146 258.621 329.11 246.717 326.168L246.03 327.5C245.552 328.458 245.173 328.976 244.34 329.68L244.092 329.884L244.625 325.332L239.785 324.427C238.996 316.628 239.072 308.789 239.05 300.958C239.025 292.209 236.98 272.742 246.546 267.646L299.394 260.401L338.594 256.88C343.743 256.596 371.068 257.536 373.384 256.213Z"/>
</svg>
