<?xml version="1.0" encoding="utf-8" ?>
<svg xmlns="http://www.w3.org/2000/svg" xmlns:xlink="http://www.w3.org/1999/xlink" width="724" height="724">
	<path fill="#F8F7FF" transform="matrix(0.707031 0 0 0.707031 0.000244141 0)" d="M185.675 710.099L184.96 709.127C181.985 698.926 181.889 687.099 181.309 676.5L178.061 620.491L177.816 589.748C177.713 585.291 176.84 580.925 176.669 576.5L175.74 518.072C175.63 512.915 174.503 507.92 174.429 502.772L172.105 371.281C171.915 367.68 171.166 364.061 171.028 360.5L170.989 278.338C171.587 266.043 173.353 249.495 178.745 238.25L180.695 238.51C176.885 266.365 177.91 294.406 177.91 322.454L178.029 392.5C178.186 396.876 179.283 401.172 179.39 405.633L179.571 493.716C179.61 499.133 180.518 504.356 180.665 509.726L180.828 555.25C180.954 559.484 181.781 563.631 181.881 567.901L182.104 619.5C182.208 623.436 183.056 627.382 183.21 631.364L185.675 710.099Z"/>
	<path fill="#322B52" transform="matrix(0.707031 0 0 0.707031 0.000244141 0)" d="M180.695 238.51C181.976 233.389 182.782 228.228 184.237 223.121C204.574 151.754 257.702 143.246 324.75 139.116L440 132.611C442.398 132.473 444.746 131.883 447.156 131.704L538.358 130.894C621.079 130.908 681.489 138.442 744.072 200.184C804.714 260.011 842.775 348.254 843.294 433.122L843.23 477C843.078 481.822 842.181 486.581 842.089 491.46L841.905 545.75C841.75 549.268 840.942 552.759 840.778 556.331L840.264 587.876C840.156 591.567 839.501 595.28 839.319 598.992L834.093 712.736C831.817 748.925 828.891 802.746 802.084 830.109C769.696 863.168 699.75 870.813 655.218 875.564L617.75 879.5L471.75 886.947L401.273 887.073C363.44 887.116 338.847 887.131 301.4 881.805C228.682 871.462 198.569 842.546 190.115 769.156L186.696 712.25C186.683 712.012 186.538 710.218 186.391 710.099L183.21 631.364C183.056 627.382 182.208 623.436 182.104 619.5L181.881 567.901C181.781 563.631 180.954 559.484 180.828 555.25L180.665 509.726C180.518 504.356 179.61 499.133 179.571 493.716L179.39 405.633C179.283 401.172 178.186 396.876 178.029 392.5L177.91 322.454C177.91 294.406 176.885 266.365 180.695 238.51Z"/>
	<path fill="#F8F7FF" transform="matrix(0.707031 0 0 0.707031 0.000244141 0)" d="M667.849 169.626C729.652 205.712 766.542 250.986 792.763 315.83C781.772 314.13 770.755 314.232 759.681 313.8C733.301 312.773 703.607 303.63 684.506 284.352C666.011 265.685 667.891 233.023 667.863 208.818L667.849 169.626Z"/>
	<defs>
		<linearGradient id="gradient_0" gradientUnits="userSpaceOnUse" x1="760.45972" y1="839.99182" x2="184.49092" y2="225.23215">
			<stop offset="0" stop-color="#DFE7FE"/>
			<stop offset="1" stop-color="#FEFBFC"/>
		</linearGradient>
	</defs>
	<path fill="url(#gradient_0)" transform="matrix(0.707031 0 0 0.707031 0.000244141 0)" d="M469.17 148.59L572.054 148.793C592.524 149.889 629.779 155.23 649.152 163.967L649.041 164.728C646.049 186.191 646.907 248.642 650.739 267.202C659.709 310.653 706.801 328.932 747.051 331.552L774.189 332.417C783.687 332.955 793.296 334.356 802.733 335.598C819.55 377.671 823.711 421.673 823.588 466.344L823.335 514.696L818.147 643.98C817.996 647.753 817.336 651.496 817.228 655.25L815.587 692.856C814.083 719.739 813.342 747.377 807.608 773.791C797.433 820.662 772.198 832.467 729.626 843.17C670.14 858.125 607.276 860.723 546.321 863.687C543.953 863.502 540.28 863.995 537.76 864.011L512.287 864.347C508.703 864.538 505.226 865.245 501.613 865.35L428.527 867.78C393.813 869.558 358.966 872.857 324.5 866.575C267.088 856.111 223.712 853.074 211.109 784.646L208.833 769.463C206.905 759.376 207.515 748.24 207.271 737.964L201.275 639.896L198.842 428.997C198.729 424.331 197.605 419.816 197.537 415.205L197.356 351.548C197.268 346.43 196.197 341.406 196.13 336.347L196.069 287.349C196.12 252.516 195.591 216.234 221.681 189.538C246.792 163.845 283.543 159.969 317.533 158.497L417.711 151.704C434.87 150.466 451.957 148.762 469.17 148.59Z"/>
	<path fill="#B8B8FF" transform="matrix(0.707031 0 0 0.707031 0.000244141 0)" d="M567.935 784.453C569.814 783.959 572.055 784.052 574 783.886L585.281 782.965C588.062 783.176 591.312 783.689 593.789 785.041L594 785.755C595.063 785.755 595.054 785.624 596 786.255L601.063 786.525C586.447 789.029 579.876 784.959 567.935 784.453Z"/>
	<path fill="#9381FF" transform="matrix(0.707031 0 0 0.707031 0.000244141 0)" d="M696.844 746.764C696.743 751.473 692.738 756.279 689.759 759.787C668.983 788.759 632.234 784.095 601.063 786.434L596 786.255C595.054 785.624 595.063 785.755 594 785.755L593.789 785.041C591.312 783.689 588.062 783.176 585.281 782.965C592.385 781.364 600.791 781.535 608.108 780.827C637.985 777.934 664.864 773.302 688.494 753.82L696.844 746.764Z"/>
	<path fill="#322B52" transform="matrix(0.707031 0 0 0.707031 0.000244141 0)" d="M515.805 258.206C539.227 256.817 534.727 278.534 524.326 280.609C516.156 282.24 507.066 282.146 498.724 282.782L292.621 297.909C285.778 298.107 278 298.346 275.844 290.298C274.672 285.925 276.49 278.231 281.729 277.094L282.313 276.987C290.379 275.199 299.905 276.067 308.223 275.595L515.805 258.206Z"/>
	<path fill="#322B52" transform="matrix(0.707031 0 0 0.707031 0.000244141 0)" d="M560.446 340.328C565.572 339.792 572.88 339.201 576.987 342.737C582.032 347.08 581.561 355.846 577.253 360.488L576.75 361.012C575.256 362.6 573.646 362.948 571.5 363.054L454.593 370.546L303.113 392.062C278.857 395.896 280.998 376.163 291.25 373.024C296.826 371.317 303.412 371.012 309.187 370.152L493.915 345.713L560.446 340.328Z"/>
	<path fill="#322B52" transform="matrix(0.707031 0 0 0.707031 0.000244141 0)" d="M567.935 784.453L497.25 784.444C491.636 784.409 486.224 783.426 480.674 783.269L418.848 780.218C397.383 778.924 374.389 778.717 353.812 771.822C306.247 755.883 295.684 711.73 290.877 666.523L287.101 624.99L286.896 574.75C286.986 565.125 287.906 555.725 288.664 546.148C295.455 460.439 309.059 424.216 404.931 414.951C430.122 412.517 455.141 412.306 480.425 412.282L546.269 412.469C551.149 412.556 555.912 413.257 560.764 413.49L631.815 419.584C680.858 427.042 703.277 439.524 714.707 487.359C721.345 515.14 721.792 543.36 722.918 571.75L723.905 651.335C723.189 680.323 717.607 727.006 696.844 746.764L688.494 753.82C664.864 773.302 637.985 777.934 608.108 780.827C600.791 781.535 592.385 781.364 585.281 782.965L574 783.886C572.055 784.052 569.814 783.959 567.935 784.453Z"/>
	<path fill="#B8B8FF" transform="matrix(0.707031 0 0 0.707031 0.000244141 0)" d="M313.884 503.257L314.68 498.77C322.104 456.37 346.451 445.035 385.471 438.015C404.811 434.535 424.782 432.585 444.426 431.872L554.33 432.024L586.375 434.341C613.662 436.263 668.359 438.286 685.104 462.908L683.368 463.921C675.637 472.435 670.303 482.678 663.464 491.881C651.622 507.814 638.123 522.769 625.213 537.852L611.131 554.214C606.78 559.322 602.127 565.24 596.491 568.98C588.531 563.228 581.775 555.605 574 549.486C544.933 526.61 501.013 502.288 462.531 508.628C443.468 511.769 423.344 530.401 412.217 546.158C396.361 568.612 392.987 596.453 392.535 623.25C392.407 630.899 393.567 639.512 390.687 646.665L390.424 647.333C384.629 661.799 344.698 695.779 331.133 701.613L317.68 706.059C312.616 683.996 310.257 669.683 308.53 646.402L306.831 621.447C306.145 602.339 305.891 582.595 306.937 563.5L308.777 542.815C309.959 529.567 311.305 516.319 313.884 503.257Z"/>
	<path fill="#F8F7FF" transform="matrix(0.707031 0 0 0.707031 0.000244141 0)" d="M380.753 478.554C386.334 478.284 389.548 480.029 388.508 486C381.655 494.966 356.582 500.331 345.387 503.501C342.985 504.074 340.869 505.191 338.5 505.852L338.19 505.25C342.394 489.906 367.31 482.092 380.753 478.554Z"/>
	<path fill="#F8F7FF" transform="matrix(0.707031 0 0 0.707031 0.000244141 0)" d="M313.884 503.257L314.68 498.77C322.104 456.37 346.451 445.035 385.471 438.015C404.811 434.535 424.782 432.585 444.426 431.872L554.33 432.024L586.375 434.341C613.662 436.263 668.359 438.286 685.104 462.908L683.368 463.921C678.19 463.037 673.235 461.315 668.032 460.535L512.054 444.014C467.415 440.864 344.222 450.379 322.027 498.498C321.148 500.405 320.68 503.262 319.25 504.745L319.5 503.25C320.249 501.503 320.687 499.754 321.5 498L322.875 494.625C320.874 494.669 317.123 496.222 315.621 497.578L314.54 503.431L309.631 540.804C309.288 542.82 309.27 545.169 310.481 546.894L311.745 548.25C313.105 544.25 313.177 539.57 314.375 535.375L316.484 528.25C316.756 527.436 317.141 526.77 317.5 526L318.18 524.22C318.54 523.262 318.191 524.249 319 523L319.313 522.304C320.612 519.529 324.994 516.215 327.25 514L328.245 514.25C325.404 516.951 321.532 519.951 319.549 523.315C312.759 534.838 310.572 557.848 310.231 571.993L310.017 605.637C310.002 609.671 310.818 619.402 308.244 622.423L307.119 621.447C306.145 602.339 305.891 582.595 306.937 563.5L308.777 542.815C309.959 529.567 311.305 516.319 313.884 503.257Z"/>
	<path fill="#9381FF" transform="matrix(0.707031 0 0 0.707031 0.000244141 0)" d="M683.368 463.921L685.104 462.908C698.884 486.965 699.99 519.36 701.018 546.75L702.481 573.86C702.628 577.233 703.593 580.479 703.772 583.859L703.975 615.308L703.969 645.521C703.933 666.38 701.275 688.2 695.735 708.354L691.584 719.5C674.793 756.268 626.912 761.077 590.977 763.93L503.802 765.26L395.484 758.176C356.115 753.916 332.128 746.496 317.68 706.059L331.133 701.613C344.698 695.779 384.629 661.799 390.424 647.333L390.687 646.665C393.567 639.512 392.407 630.899 392.535 623.25C392.987 596.453 396.361 568.612 412.217 546.158C423.344 530.401 443.468 511.769 462.531 508.628C501.013 502.288 544.933 526.61 574 549.486C581.775 555.605 588.531 563.228 596.491 568.98C602.127 565.24 606.78 559.322 611.131 554.214L625.213 537.852C638.123 522.769 651.622 507.814 663.464 491.881C670.303 482.678 675.637 472.435 683.368 463.921Z"/>
	<path fill="#322B52" transform="matrix(0.707031 0 0 0.707031 0.000244141 0)" d="M448.278 526.632C452.521 526.191 457.559 526.258 461.793 526.808L466.442 527.402C495.675 531.895 537.673 560.985 560.676 579.092C607.362 615.844 588.942 632.49 546.339 659.791L522.919 674.901C509.966 683.729 497.692 689.836 483.064 694.975L481.25 695.52C392.799 716.029 379.013 539.428 448.278 526.632Z"/>
	<path fill="#FDB4D9" transform="matrix(0.707031 0 0 0.707031 0.000244141 0)" d="M562.521 608.338C564.796 611.165 566.238 613.837 567.404 617.298C563.151 623.377 556.886 627.699 550.98 632.073L517.712 654.328C508.096 660.355 498.643 666.765 488.421 671.74C454.121 688.433 433.603 662.828 428.062 630.465L430.093 628.755C433.299 626.453 442.152 628.148 446.016 629.504C466.128 636.567 452.714 674.129 498 648.483L550.534 617.097C554.221 614.83 559.872 611.808 562.521 608.338Z"/>
	<path fill="#F8F7FF" transform="matrix(0.707031 0 0 0.707031 0.000244141 0)" d="M428.062 630.465C426.36 620.336 424.977 609.848 424.992 599.562C425.046 564.256 440.964 535.663 478 551.435C500.17 560.876 546.087 591.576 562.521 608.338C559.872 611.808 554.221 614.83 550.534 617.097L498 648.483C452.714 674.129 466.128 636.567 446.016 629.504C442.152 628.148 433.299 626.453 430.093 628.755L428.062 630.465Z"/>
</svg>
